<svg width="65" height="65" viewBox="0 0 65 65" fill="none" xmlns="http://www.w3.org/2000/svg">
<path d="M60.4373 17.2894H58.6571V41.8228C58.6571 45.6426 56.8832 49.0966 53.3269 49.0966H18.4854V50.263C18.4854 53.6401 21.549 57.0491 24.6951 57.0491H51.3331L61.5241 64.5615L60.0462 57.0491H60.4373C63.5813 57.0491 65 53.6481 65 50.263V23.1133C65 19.7361 63.5813 17.2894 60.4373 17.2894Z" fill="#F3F3F6"/>
<path d="M48.1258 0.244629H7.65801C4.09752 0.244629 0 4.21025 0 8.03273V38.7822C0 42.3025 3.47169 44.8446 6.80172 45.2369L4.63456 55.5513L18.5213 45.3085H48.1258C51.6863 45.3085 54.9719 42.602 54.9719 38.7822V13.9043V8.03273C54.9719 4.21025 51.6842 0.244629 48.1258 0.244629ZM13.8318 26.2014C11.8126 26.2014 10.1761 24.1497 10.1761 21.6182C10.1761 19.0866 11.8126 17.0349 13.8318 17.0349C15.8488 17.0349 17.4874 19.0866 17.4874 21.6182C17.4874 24.1497 15.8488 26.2014 13.8318 26.2014ZM27.486 26.2014C25.4668 26.2014 23.8303 24.1497 23.8303 21.6182C23.8303 19.0866 25.4668 17.0349 27.486 17.0349C29.5051 17.0349 31.1416 19.0866 31.1416 21.6182C31.1416 24.1497 29.5051 26.2014 27.486 26.2014ZM41.1423 26.2014C39.1231 26.2014 37.4845 24.1497 37.4845 21.6182C37.4845 19.0866 39.1231 17.0349 41.1423 17.0349C43.1572 17.0349 44.7979 19.0866 44.7979 21.6182C44.7979 24.1497 43.1572 26.2014 41.1423 26.2014Z" fill="#F3F3F6"/>
</svg>
