<?xml version="1.0" encoding="utf-8"?>
<!-- Generator: Adobe Illustrator 26.0.1, SVG Export Plug-In . SVG Version: 6.00 Build 0)  -->
<svg version="1.1" id="Layer_1" xmlns="http://www.w3.org/2000/svg" xmlns:xlink="http://www.w3.org/1999/xlink" x="0px" y="0px"
	 viewBox="0 0 52 52" style="enable-background:new 0 0 52 52;" xml:space="preserve">
<style type="text/css">
	.st0{fill:#F3F3F6;}
</style>
<g>
	<path class="st0" d="M37,43.7c0.9,0,1.6-0.8,1.6-1.8c0-1-0.7-1.8-1.6-1.8c-0.9,0-1.6,0.8-1.6,1.8C35.4,42.9,36.1,43.7,37,43.7z"/>
	<path class="st0" d="M17.7,35.3C16.9,34.5,16,34,15,34c-1,0-2,0.5-2.8,1.3C13.7,35,15.6,34.9,17.7,35.3z"/>
	<path class="st0" d="M52,47.7c-1.3-8.8-6.4-16.2-13.5-20.3c0.3,2.5,0.7,6.7-0.1,10.4c1.6,0.6,2.7,2.1,2.7,4c0,2.4-1.8,4.2-4,4.2
		s-4-1.9-4-4.2c0-2,1.3-3.7,3.1-4.1c1.1-4.4,0.2-10,0-11.5c-0.3-0.1-0.6-0.2-0.9-0.4c-2.4,2.5-5.6,4-9.2,4c-3.5,0-6.7-1.5-9.1-3.9
		c-0.4,0.8-1.1,2.8-0.9,5.9c3.5,0.7,6.2,5,6.2,10.1c0,1.9-0.4,3.8-1.1,5.4c-0.4,1.2-2,1.7-2.7,1.7c-1.1,0-2-0.9-2-2.1
		c0-1.2,0.9-2.1,2-2.1c0.3,0,0.8,0.1,1.3,0.3c0.8-2.5,0.2-5.8-0.2-6.9c-4-1.8-7.6-0.6-8.9,0c-0.4,1.1-1.1,4.2-0.2,6.9
		c0.5-0.2,0.9-0.3,1.3-0.3c1.1,0,2,0.9,2,2.1c0,1.2-0.9,2.1-2,2.1c-0.7,0-2.3-0.5-2.7-1.6C8.2,45.9,7.8,44,7.8,42
		c0-5.1,2.6-9.4,6.1-10.1c-0.1-2,0.2-3.6,0.5-4.8C6.8,31,1.4,38.7,0,47.7C-0.3,50,1.4,52,3.5,52h45C50.6,52,52.3,50,52,47.7z"/>
	<path class="st0" d="M26,28.1c6.2,0,11.2-5.3,11.2-11.9c0-0.9-0.1-1.8-0.3-2.6c0,0-5.3-1.6-10.9-1.6c-5.6,0-10.9,1.6-10.9,1.6
		c-0.2,0.9-0.3,1.7-0.3,2.6C14.8,22.8,19.8,28.1,26,28.1z"/>
	<path class="st0" d="M36,11c0.8-3.1,1.5-6.2,2.3-9.3c-8.1-2.2-16.6-2.2-24.6,0c0.7,3.1,1.5,6.2,2.3,9.3C22.5,9.2,29.5,9.2,36,11z
		 M23,3.8h2.1V1.6h1.8v2.2H29v1.9h-2.1V8h-1.8V5.7H23V3.8z"/>
</g>
</svg>
