<svg id="Layer_1" data-name="Layer 1" xmlns="http://www.w3.org/2000/svg" viewBox="0 0 86.14 86.14"><defs><style>.cls-1{fill:#f3f3f6;}</style></defs><path class="cls-1" d="M54.09,60.73A1.78,1.78,0,1,0,52.44,59,1.71,1.71,0,0,0,54.09,60.73Z"/><path class="cls-1" d="M34.78,52.39a4,4,0,0,0-2.73-1.28,3.85,3.85,0,0,0-2.76,1.31A13.21,13.21,0,0,1,34.78,52.39Z"/><path class="cls-1" d="M69,64.81A27.86,27.86,0,0,0,55.49,44.55,32.59,32.59,0,0,1,55.36,55a4.25,4.25,0,0,1,2.73,4,4,4,0,1,1-8,0,4.2,4.2,0,0,1,3.1-4.13c1.07-4.37.2-10,0-11.47-.28-.13-.57-.25-.87-.37A12.57,12.57,0,0,1,34,43.1,13.21,13.21,0,0,0,33.05,49c3.5.7,6.19,5,6.19,10.15a13.78,13.78,0,0,1-1.08,5.41,3,3,0,0,1-2.73,1.7,2.15,2.15,0,0,1,0-4.29,3.62,3.62,0,0,1,1.29.28,12.3,12.3,0,0,0-.2-6.89,11.09,11.09,0,0,0-8.92,0,12.11,12.11,0,0,0-.2,6.89,3.54,3.54,0,0,1,1.28-.28,2.15,2.15,0,0,1,0,4.29A3.09,3.09,0,0,1,26,64.64a13.33,13.33,0,0,1-1.12-5.53c0-5.11,2.65-9.36,6.06-10.15a17.59,17.59,0,0,1,.46-4.83A27.79,27.79,0,0,0,17.11,64.81a3.63,3.63,0,0,0,3.43,4.25h45A3.63,3.63,0,0,0,69,64.81Z"/><path class="cls-1" d="M43.07,45.13c6.19,0,11.22-5.32,11.22-11.89A11.07,11.07,0,0,0,54,30.6,41.47,41.47,0,0,0,43.07,29,41.08,41.08,0,0,0,32.18,30.6a13.6,13.6,0,0,0-.29,2.64C31.85,39.84,36.88,45.13,43.07,45.13Z"/><path class="cls-1" d="M53.1,28.05c.79-3.1,1.53-6.23,2.27-9.33a46.88,46.88,0,0,0-24.6,0c.75,3.1,1.53,6.23,2.28,9.33A38.1,38.1,0,0,1,53.1,28.05ZM40.05,20.9h2.11V18.67H44V20.9h2.1v1.9H44V25H42.16V22.8H40.05Z"/></svg>