<svg id="Layer_1" data-name="Layer 1" xmlns="http://www.w3.org/2000/svg" viewBox="0 0 86.14 86.14"><defs><style>.cls-1{fill:#f3f3f6;}</style></defs><path class="cls-1" d="M54.33,17.07H31.81v6.06H54.33Z"/><path class="cls-1" d="M50.37,25.23H35.77v4h14.6Z"/><path class="cls-1" d="M52.06,31.33h-18s-4.66,5.05-4.66,6.56V67.05a2,2,0,0,0,2,2H54.7a2,2,0,0,0,2-2V37.85C56.72,36.2,52.06,31.33,52.06,31.33ZM46.7,41.73a2.39,2.39,0,0,1,.7,4.73l-3,.46-.7-4.74ZM37.3,63.58a2.39,2.39,0,0,1-4.38-1.89l1.2-2.8,4.37,1.9Zm3.25-7.5-1.2,2.8L35,57l1.2-2.8a2.39,2.39,0,0,1,3.13-1.24A2.37,2.37,0,0,1,40.55,56.08Zm-1.27-8.46a2.39,2.39,0,1,1-.7-4.73l3-.46.7,4.75Zm7.17,15.72a2.4,2.4,0,0,1-3.18-3.59l2.27-2,3.13,3.59Zm6.15-5.4-2.27,2L47.2,56.37l2.27-2a2.4,2.4,0,0,1,3.38.2A2.46,2.46,0,0,1,52.6,57.94Z"/></svg>