<?xml version="1.0" encoding="utf-8"?>
<!-- Generator: Adobe Illustrator 26.0.1, SVG Export Plug-In . SVG Version: 6.00 Build 0)  -->
<svg version="1.1" id="Layer_1" xmlns="http://www.w3.org/2000/svg" xmlns:xlink="http://www.w3.org/1999/xlink" x="0px" y="0px"
	 viewBox="0 0 28 52" style="enable-background:new 0 0 28 52;" xml:space="preserve">
<style type="text/css">
	.st0{fill:#F3F3F6;}
</style>
<g>
	<path class="st0" d="M24.9,0H2.4v6.1h22.5V0z"/>
	<path class="st0" d="M20.9,8.2H6.3v4h14.6V8.2z"/>
	<path class="st0" d="M22.6,14.3h-18c0,0-4.7,5.1-4.7,6.6V50c0,1.1,0.9,2,2,2h23.3c1.1,0,2-0.9,2-2V20.8
		C27.3,19.1,22.6,14.3,22.6,14.3z M17.3,24.7c1.3-0.2,2.5,0.7,2.7,2c0.2,1.3-0.7,2.5-2,2.7l-3,0.5l-0.7-4.7L17.3,24.7z M7.9,46.5
		c-0.5,1.2-1.9,1.8-3.1,1.2c-1.2-0.5-1.8-1.9-1.2-3.1l1.2-2.8l4.4,1.9L7.9,46.5z M11.1,39l-1.2,2.8l-4.4-1.9l1.2-2.8
		c0.5-1.2,1.9-1.8,3.1-1.2C11.1,36.4,11.7,37.8,11.1,39z M9.9,30.6c-1.3,0.2-2.5-0.7-2.7-2c-0.2-1.3,0.7-2.5,2-2.7l3-0.5l0.7,4.7
		L9.9,30.6z M17,46.3c-1,0.9-2.5,0.8-3.4-0.2c-0.9-1-0.8-2.5,0.2-3.4l2.3-2l3.1,3.6L17,46.3z M23.2,40.9l-2.3,2l-3.1-3.6l2.3-2
		c1-0.9,2.5-0.8,3.4,0.2C24.2,38.5,24.2,40,23.2,40.9z"/>
</g>
</svg>
