<svg width="260" height="363" viewBox="0 0 260 363" fill="none" xmlns="http://www.w3.org/2000/svg">
<path d="M22.6507 215.985C25.6184 222.981 31.8548 228.456 39.8642 230.073C46.5135 231.417 53.0664 231.869 59.5032 231.532C59.7897 243.886 58.9004 262.185 53.5943 283.183C48.5574 303.137 54.8838 323.226 70.9661 338.302C94.6617 360.522 133.619 368.043 167.919 357.009C191.475 349.431 208.928 331.845 217.055 307.491C228.67 272.673 219.879 229.632 193.539 192.382C169.124 157.85 178.659 132.17 186.496 119.928C197.892 125.513 211.354 126.888 224.395 122.692C251.116 114.096 265.821 85.4517 257.221 58.7174C248.62 31.983 219.974 17.2921 193.253 25.8884C166.518 34.4891 151.826 63.1294 160.424 89.8576C161.635 93.6217 163.276 97.1139 165.219 100.37C149.81 121.592 137.222 162.253 170.188 208.887C190.976 238.293 198.538 272.604 189.914 298.441C186.262 309.405 177.951 323.743 159.154 329.79C134.834 337.614 106.609 332.534 90.5247 317.445C84.5914 311.88 78.1826 302.62 81.3231 290.178C88.3352 262.385 88.6238 238.463 87.8089 224.16C95.4544 220.365 102.466 215.249 108.716 208.792C114.287 203.035 116.323 195.205 114.972 187.886C137.648 148.691 135.656 91.8558 135.525 88.5343C135.237 81.7265 130.225 76.2549 123.79 75.095C115.627 34.5719 94.8142 19.5201 83.4993 14.3018C82.9564 10.3309 80.1608 6.79566 76.1676 5.70368L56.7473 0.37878C51.6755 -1.01031 46.8507 2.06642 45.9887 7.26577L43.0966 24.5017C42.229 29.7043 45.7897 33.8089 51.0568 33.6809L70.9186 33.1922C75.9547 33.0683 80.758 29.0978 82.0653 24.2291C91.7452 29.5197 107.612 43.1272 114.431 76.6285C109.803 79.1533 106.733 84.1042 106.963 89.7288C107.637 106.776 105.444 143.142 92.9854 168.533C86.296 168.148 79.4921 170.462 74.4643 175.644C71.192 179.027 67.6696 181.333 63.7304 182.692L62.9129 182.955C58.7052 184.21 54.2451 184.345 49.3142 183.352C42.3283 181.936 35.494 183.812 30.2252 187.821C5.69213 174.243 -16.8055 146.575 -26.0561 132.525C-29.1485 127.836 -34.5493 125.601 -39.764 126.244C-53.7633 95.0523 -48.8108 74.7471 -44.0216 64.8018C-40.1187 67.9929 -33.907 68.4212 -29.7437 65.5842L-13.3226 54.4004C-8.97621 51.4357 -8.46559 46.0131 -12.2077 42.3017L-24.6014 29.9819C-28.3397 26.2612 -34.0531 26.576 -37.3575 30.6598L-50.0437 46.3217C-52.6487 49.5364 -52.8554 54.0361 -50.9843 57.5811C-57.1203 68.4148 -65.268 92.774 -48.2676 130.461C-52.8225 135.158 -53.6945 142.521 -49.9636 148.229C-48.1689 150.945 -17.6268 196.764 22.6507 215.985ZM202.741 55.381C213.169 52.0261 224.362 57.7602 227.724 68.2094C231.083 78.6513 225.335 89.8423 214.907 93.1973C204.463 96.5569 193.274 90.8147 189.915 80.3728C186.553 69.9224 192.292 58.7426 202.741 55.381Z" fill="#7F8694" fill-opacity="0.15"/>
</svg>
