<svg width="42" height="52" viewBox="0 0 42 52" fill="none" xmlns="http://www.w3.org/2000/svg">
<path d="M29.8365 0H0.24353V52H41.7565V11.92L29.8365 0ZM8.02389 12.7904H11.3462V9.51051C11.3462 8.03511 12.535 6.8463 14.0104 6.8463C15.4858 6.8463 16.6746 8.03511 16.6746 9.51051V12.7904H19.997C21.4724 12.7904 22.6612 13.9792 22.6612 15.4546C22.6612 16.93 21.4724 18.1188 19.997 18.1188H16.6746V21.4305C16.6746 22.9059 15.4858 24.0947 14.0104 24.0947C12.535 24.0947 11.3462 22.9059 11.3462 21.4305V18.1082H8.02389C6.54849 18.1082 5.35968 16.9194 5.35968 15.444C5.35968 13.9792 6.5591 12.7904 8.02389 12.7904ZM35.5364 44.4001H6.47419C5.90101 44.4001 5.40213 43.9437 5.40213 43.328C5.40213 42.7549 5.85855 42.256 6.47419 42.256H35.4834C36.0566 42.256 36.5554 42.7124 36.5554 43.328C36.566 43.9437 36.1096 44.4001 35.5364 44.4001ZM35.5364 35.3248H6.47419C5.90101 35.3248 5.40213 34.8683 5.40213 34.2527C5.40213 33.6795 5.85855 33.1807 6.47419 33.1807H35.4834C36.0566 33.1807 36.5554 33.6371 36.5554 34.2527C36.566 34.8259 36.1096 35.3248 35.5364 35.3248ZM27.6924 14.0216V2.10165L39.6655 14.0323H27.6924V14.0216Z" fill="white"/>
</svg>
