<svg width="26" height="32" viewBox="0 0 26 32" fill="none" xmlns="http://www.w3.org/2000/svg">
<path d="M18.343 0H0.212524V31.8584H25.6459V7.30292L18.343 0ZM4.97925 7.83617H7.01471V5.82673C7.01471 4.9228 7.74305 4.19446 8.64697 4.19446C9.5509 4.19446 10.2792 4.9228 10.2792 5.82673V7.83617H12.3147C13.2186 7.83617 13.947 8.56451 13.947 9.46843C13.947 10.3724 13.2186 11.1007 12.3147 11.1007H10.2792V13.1296C10.2792 14.0336 9.5509 14.7619 8.64697 14.7619C7.74305 14.7619 7.01471 14.0336 7.01471 13.1296V11.0942H4.97925C4.07533 11.0942 3.34699 10.3659 3.34699 9.46193C3.34699 8.56451 4.08183 7.83617 4.97925 7.83617ZM21.8351 27.2022H4.02981C3.67865 27.2022 3.373 26.9226 3.373 26.5454C3.373 26.1943 3.65263 25.8886 4.02981 25.8886H21.8026C22.1538 25.8886 22.4594 26.1682 22.4594 26.5454C22.4659 26.9226 22.1863 27.2022 21.8351 27.2022ZM21.8351 21.6421H4.02981C3.67865 21.6421 3.373 21.3625 3.373 20.9853C3.373 20.6342 3.65263 20.3285 4.02981 20.3285H21.8026C22.1538 20.3285 22.4594 20.6081 22.4594 20.9853C22.4659 21.3365 22.1863 21.6421 21.8351 21.6421ZM17.0294 8.59052V1.2876L24.3648 8.59702H17.0294V8.59052Z" fill="white"/>
</svg>
