<svg width="65" height="73" viewBox="0 0 65 73" fill="none" xmlns="http://www.w3.org/2000/svg">
<path d="M43.4004 24.3247H43.3546C42.7069 24.3247 42.2056 24.8495 42.2056 25.4966C42.2056 26.1437 42.7526 26.6685 43.4003 26.6685C44.048 26.6685 44.5722 26.1437 44.5722 25.4966C44.5722 24.8495 44.0481 24.3247 43.4004 24.3247Z" fill="#F3F3F6"/>
<path d="M49.5332 24.3247H49.4874C48.8397 24.3247 48.3384 24.8495 48.3384 25.4966C48.3384 26.1437 48.8854 26.6685 49.5331 26.6685C50.1808 26.6685 50.705 26.1437 50.705 25.4966C50.705 24.8495 50.1809 24.3247 49.5332 24.3247Z" fill="#F3F3F6"/>
<path d="M55.666 24.3247H55.6202C54.9725 24.3247 54.4712 24.8495 54.4712 25.4966C54.4712 26.1437 55.0182 26.6685 55.6659 26.6685C56.3136 26.6685 56.8378 26.1437 56.8378 25.4966C56.8378 24.8495 56.3137 24.3247 55.666 24.3247Z" fill="#F3F3F6"/>
<path d="M63.4527 21.1866C61.1953 13.7314 53.5692 9.35234 46.0873 10.974V4.29863C46.0873 2.02297 44.2357 0.171875 41.9595 0.171875H5.03399C2.75891 0.171875 0.907227 2.02297 0.907227 4.29863V68.6968C0.907227 70.9748 2.75891 72.8281 5.03399 72.8281H41.9595C44.2358 72.8281 46.0875 70.9748 46.0875 68.6968V40.0141C47.1063 40.2343 48.1455 40.3591 49.1946 40.359C50.6388 40.359 52.0968 40.1472 53.525 39.7141C57.3256 38.5657 60.4521 36.0062 62.3266 32.5072C64.2011 29.0082 64.6017 24.9879 63.4527 21.1866ZM15.3188 2.51562H32.723V3.88602C32.723 4.64188 32.1085 5.25641 31.3532 5.25641H16.6886C15.9334 5.25641 15.3188 4.64188 15.3188 3.88602V2.51562ZM43.7436 68.6968C43.7436 69.6827 42.9437 70.4844 41.9594 70.4844H5.03399C4.0509 70.4844 3.25098 69.6827 3.25098 68.6968V66.5751H43.7436V68.6968ZM43.7436 64.2314H3.25098V4.29863C3.25098 3.31555 4.0509 2.51562 5.03399 2.51562H12.9751V3.88602C12.9751 5.93398 14.6414 7.60016 16.6886 7.60016H31.3531C33.4005 7.60016 35.0667 5.93387 35.0667 3.88602V2.51562H41.9594C42.9436 2.51562 43.7436 3.31555 43.7436 4.29863V11.6854C38.4471 13.7843 34.9404 18.685 34.4335 24.1339C31.5004 21.7689 27.8376 20.4325 24.0185 20.4325C14.8586 20.4325 7.40738 27.885 7.40738 37.0448C7.40738 46.207 14.8586 53.6611 24.0185 53.6611C32.9963 53.6611 40.3153 46.4956 40.6034 37.5843C41.5893 38.2887 42.6432 38.8598 43.7436 39.2988V64.2314ZM33.6488 36.7283C33.8755 37.0768 34.276 37.2787 34.6845 37.2581L38.2849 37.0883C38.2733 40.9026 36.7504 44.3619 34.2952 46.9186C33.0809 44.3127 30.9193 42.2892 28.3109 41.2133C29.9482 39.9334 31.0063 37.9456 31.0063 35.7114C31.0063 31.8588 27.8717 28.7243 24.0185 28.7243C20.1686 28.7243 17.0364 31.8588 17.0364 35.7114C17.0364 37.9455 18.0938 39.9331 19.7294 41.213C17.1208 42.2895 14.9589 44.315 13.7448 46.9231C11.2777 44.3565 9.75113 40.8784 9.75113 37.0447C9.75113 29.1768 16.1518 22.7762 24.0185 22.7762C28.0051 22.7762 31.8015 24.4583 34.4998 27.3846C34.6033 28.1874 34.7564 28.9919 34.9979 29.792C35.1741 30.3693 35.3802 30.9289 35.6136 31.4628L33.5799 35.5667C33.3948 35.9393 33.421 36.3809 33.6488 36.7283ZM24.0186 42.6987C27.7784 42.6987 31.1084 45.0815 32.4111 48.5609C30.0529 50.2858 27.1575 51.3173 24.0186 51.3173C20.8817 51.3173 17.9875 50.2871 15.6298 48.564C16.9324 45.0832 20.2609 42.6987 24.0186 42.6987ZM19.3803 35.7114C19.3803 33.1508 21.4609 31.068 24.0186 31.068C26.5797 31.068 28.6626 33.1508 28.6626 35.7114C28.6626 38.2721 26.5798 40.3549 24.0186 40.3549C21.4609 40.355 19.3803 38.2721 19.3803 35.7114ZM60.2609 31.4005C58.6816 34.3473 56.0484 36.5034 52.8464 37.471C48.7116 38.7247 44.2839 37.7783 41.0109 34.9379C40.7969 34.7525 40.5246 34.6512 40.243 34.6512C40.2247 34.6512 40.2063 34.6518 40.188 34.6524L36.5636 34.8235L37.9622 32.002C38.1235 31.6764 38.1257 31.2948 37.9667 30.968C37.6841 30.389 37.4403 29.7636 37.2412 29.1118C35.2454 22.5039 38.9956 15.5036 45.6 13.5061C52.2089 11.5102 59.2105 15.2611 61.2097 21.8654C62.1766 25.0668 61.8402 28.4531 60.2609 31.4005Z" fill="#F3F3F6"/>
</svg>
