<svg width="73" height="67" viewBox="0 0 73 67" fill="none" xmlns="http://www.w3.org/2000/svg">
<path d="M43.6163 43.9324C42.9692 43.9324 42.4141 43.4076 42.4141 42.7605C42.4141 42.1134 42.9085 41.5886 43.5556 41.5886H43.6163C44.2634 41.5886 44.7882 42.1134 44.7882 42.7605C44.7882 43.4076 44.2634 43.9324 43.6163 43.9324Z" fill="#F3F3F6"/>
<path d="M52.1565 43.9324C51.5094 43.9324 50.9526 43.4076 50.9526 42.7605C50.9526 42.1134 51.4447 41.5886 52.0919 41.5886H52.1566C52.8037 41.5886 53.3285 42.1134 53.3285 42.7605C53.3285 43.4076 52.8036 43.9324 52.1565 43.9324Z" fill="#F3F3F6"/>
<path d="M60.6926 43.9324C60.0455 43.9324 59.4888 43.4076 59.4888 42.7605C59.4888 42.1134 59.9808 41.5886 60.6281 41.5886H60.6928C61.3399 41.5886 61.8646 42.1134 61.8646 42.7605C61.8646 43.4076 61.3399 43.9324 60.6926 43.9324Z" fill="#F3F3F6"/>
<path d="M13.7467 25.5148C13.0996 25.5148 12.5405 24.9901 12.5405 24.343C12.5405 23.6958 13.0304 23.1711 13.6775 23.1711H13.7467C14.3938 23.1711 14.9186 23.6958 14.9186 24.343C14.9186 24.9901 14.3938 25.5148 13.7467 25.5148Z" fill="#F3F3F6"/>
<path d="M23.3195 25.5148C22.6724 25.5148 22.1133 24.9901 22.1133 24.343C22.1133 23.6958 22.6037 23.1711 23.2508 23.1711H23.3195C23.9666 23.1711 24.4914 23.6958 24.4914 24.343C24.4914 24.9901 23.9667 25.5148 23.3195 25.5148Z" fill="#F3F3F6"/>
<path d="M32.8927 25.5148C32.2456 25.5148 31.6865 24.9901 31.6865 24.343C31.6865 23.6958 32.177 23.1711 32.8241 23.1711H32.8927C33.5398 23.1711 34.0646 23.6958 34.0646 24.343C34.0646 24.9901 33.5398 25.5148 32.8927 25.5148Z" fill="#F3F3F6"/>
<path d="M65.2491 26.5529H65.2485C60.9621 23.0303 55.5622 21.3904 50.0409 21.9283C48.8019 22.0496 47.5956 22.2929 46.4214 22.6219C46.181 18.926 45.0514 15.33 43.1161 12.1367C39.9123 6.84839 34.8421 3.12452 28.8379 1.65101C22.8348 0.177607 16.615 1.1314 11.3284 4.33519C0.412501 10.9482 -3.08824 25.2086 3.52465 36.1251C4.05047 36.9897 4.63125 37.8206 5.25727 38.6033L2.77219 46.1701C2.63719 46.5827 2.74067 47.0359 3.04172 47.3489C3.26602 47.5811 3.57211 47.7077 3.8857 47.7077C3.99387 47.7077 4.10262 47.6928 4.20961 47.6619L13.374 45.028C19.1382 47.7707 25.6635 48.0151 31.5689 45.7528C32.3168 50.633 34.7691 55.2687 38.8732 58.643C44.2943 63.0993 51.4766 64.5052 58.1742 62.4471L65.8829 65.9169C66.0368 65.9861 66.2011 66.0199 66.3641 66.0199C66.6199 66.0199 66.874 65.9357 67.0834 65.7733C67.4262 65.5067 67.5933 65.0729 67.5183 64.6455L66.3006 57.7173C66.9403 57.1119 67.5451 56.4636 68.1042 55.7838C75.3737 46.9371 74.0925 33.8239 65.2491 26.5529ZM14.0075 42.7291C13.7449 42.5987 13.4434 42.5705 13.1596 42.6513L5.69004 44.7982L7.68528 38.7219C7.81231 38.3344 7.72934 37.9088 7.46555 37.598C6.75774 36.7638 6.10547 35.8585 5.52867 34.9093C-0.414256 25.0994 2.73235 12.2832 12.5433 6.33968C17.2937 3.45921 22.8813 2.60315 28.2795 3.92667C33.6754 5.25136 38.2324 8.59811 41.1117 13.3515C42.9612 16.4026 43.9798 19.8641 44.1019 23.4058C40.9874 24.6932 38.2182 26.7351 36.0185 29.4127C32.6852 33.4691 31.1708 38.421 31.3376 43.2966C25.7473 45.6435 19.4777 45.4642 14.0075 42.7291ZM66.2939 54.2956C65.6725 55.0515 64.9876 55.7633 64.2574 56.4123C63.953 56.6824 63.8111 57.0909 63.8815 57.4914L64.8267 62.8713L58.727 60.1252C58.5742 60.0566 58.41 60.0222 58.2458 60.0222C58.1216 60.0222 57.9969 60.0417 57.8773 60.0818C51.825 62.0861 45.2762 60.8737 40.3621 56.8327C32.516 50.3823 31.3801 38.7493 37.8289 30.9004C40.9532 27.0982 45.3711 24.7401 50.2692 24.2612C55.1695 23.784 59.9584 25.2391 63.7607 28.3633H63.7601C71.6057 34.8138 72.7422 46.4472 66.2939 54.2956Z" fill="#F3F3F6"/>
</svg>
