<svg width="75" height="63" viewBox="0 0 75 63" fill="none" xmlns="http://www.w3.org/2000/svg">
<path d="M29.0354 14.4712L20.8022 22.7044L18.5508 20.453L26.784 12.2198L29.0354 14.4712Z" fill="#F3F3F6"/>
<path d="M74.9692 35.6837L63.1717 17.9797H48.6516V30.9001H43.3911V17.9797H39.3919C38.1153 8.24321 29.8862 0.844727 19.7806 0.844727C8.76743 0.844727 0 9.78136 0 20.6253C0 27.9161 3.95304 34.2533 9.89028 37.6372V53.3878H17.7194C17.9655 58.2791 22.0109 62.1552 26.9637 62.1552C31.9165 62.1552 35.9619 58.2637 36.208 53.3878H48.5439C48.79 58.2791 52.8353 62.1552 57.7881 62.1552C62.741 62.1552 66.7863 58.2637 67.0324 53.3878H75V35.6837H74.9692ZM57.7574 21.1636H61.4335L70.0779 34.0841H57.7574V21.1636ZM3.18396 20.6099C3.18396 11.5195 10.5209 4.01331 19.7806 4.01331C28.871 4.01331 36.3772 11.3503 36.3772 20.6099C36.3772 29.8695 29.0402 37.2065 19.7806 37.2065C10.5209 37.2065 3.18396 29.7157 3.18396 20.6099ZM26.9637 58.8174C23.7028 58.8174 21.0572 56.1718 21.0572 52.911C21.0572 49.6501 23.7028 47.0045 26.9637 47.0045C30.2246 47.0045 32.8702 49.6501 32.8702 52.911C32.8702 56.1718 30.2092 58.8174 26.9637 58.8174ZM57.7728 58.8174C54.5119 58.8174 51.8663 56.1718 51.8663 52.911C51.8663 49.6501 54.5119 47.0045 57.7728 47.0045C61.0336 47.0045 63.6792 49.6501 63.6792 52.911C63.6792 56.1718 61.0336 58.8174 57.7728 58.8174ZM71.7853 50.1884H66.6171V50.2038C65.4635 46.42 61.9411 43.6667 57.7728 43.6667C53.6044 43.6667 50.082 46.42 48.9284 50.2038H35.808C34.6544 46.42 31.1321 43.6667 26.9637 43.6667C22.7953 43.6667 19.273 46.42 18.1194 50.2038H13.0742V39.0984C15.1661 39.8367 17.4118 40.2366 19.7806 40.2366C30.4399 40.2366 39.2689 31.9153 39.5457 21.1636H40.1918V34.0841H51.8355V21.1636H54.558V37.268H71.7853V50.1884Z" fill="#F3F3F6"/>
<path d="M21.3646 6.10516H18.1807V8.9815H21.3646V6.10516Z" fill="#F3F3F6"/>
<path d="M21.3646 32.2537H18.1807V35.13H21.3646V32.2537Z" fill="#F3F3F6"/>
<path d="M8.13659 19.0256H5.26025V22.2096H8.13659V19.0256Z" fill="#F3F3F6"/>
<path d="M34.3006 19.0256H31.4243V22.2096H34.3006V19.0256Z" fill="#F3F3F6"/>
</svg>
