<svg width="73" height="73" viewBox="0 0 73 73" fill="none" xmlns="http://www.w3.org/2000/svg">
<path d="M42.4334 20.1664H42.3635C41.7164 20.1664 41.2266 20.6911 41.2266 21.3383C41.2266 21.9854 41.7861 22.5101 42.4334 22.5101C43.0806 22.5101 43.6052 21.9854 43.6052 21.3383C43.6052 20.6911 43.0805 20.1664 42.4334 20.1664Z" fill="#F3F3F6"/>
<path d="M51.9438 20.1664H51.8786C51.2314 20.1664 50.7393 20.6911 50.7393 21.3383C50.7393 21.9854 51.2966 22.5101 51.9437 22.5101C52.5908 22.5101 53.1156 21.9854 53.1156 21.3383C53.1156 20.6911 52.5911 20.1664 51.9438 20.1664Z" fill="#F3F3F6"/>
<path d="M61.4588 20.1664H61.3889C60.7418 20.1664 60.252 20.6911 60.252 21.3383C60.252 21.9854 60.8115 22.5101 61.4588 22.5101C62.106 22.5101 62.6306 21.9854 62.6306 21.3383C62.6306 20.6911 62.106 20.1664 61.4588 20.1664Z" fill="#F3F3F6"/>
<path d="M51.9632 52.8205C45.9294 49.4176 44.1223 49.6957 39.5212 52.2969C37.1604 53.8659 34.3176 52.9092 29.3771 48.8854C28.4073 48.0952 27.4327 47.214 26.484 46.2699C25.5358 45.3178 24.6553 44.3433 23.8655 43.3728C20.1411 38.8026 19.1271 34.6318 20.3368 33.3747C23.9016 29.5415 23.0926 26.3939 19.946 20.8154C18.0508 17.2305 15.9697 13.6623 13.1997 12.8435C11.1913 12.2535 8.20895 13.799 7.3209 14.3885C5.03668 15.9099 2.86742 18.601 1.65946 21.4123C-0.562419 26.5845 0.0269175 32.8181 1.31961 36.9276C3.44305 43.6647 8.53965 51.4662 14.9541 57.7971C21.2873 64.2144 29.0887 69.3098 35.823 71.4275C37.9504 72.0987 40.6473 72.5811 43.4734 72.5811C46.1027 72.5811 48.8441 72.1634 51.3395 71.0916C54.1507 69.8814 56.84 67.7122 58.3576 65.4308C58.9481 64.5455 60.4993 61.5638 59.9026 59.5468C59.0884 56.7817 55.5201 54.7001 51.9632 52.8205ZM50.84 54.8775C53.0104 56.0247 57.0507 58.1608 57.6543 60.211C57.7781 60.6287 57.6276 61.3898 57.3499 62.1809L41.4954 53.8735C44.4773 52.2225 45.6848 51.9698 50.84 54.8775ZM12.5367 15.0915C14.5903 15.6986 16.7264 19.7395 17.8891 21.9385C20.9609 27.3842 20.9512 29.1026 18.9759 31.3814L10.4234 15.448C11.075 15.207 11.7182 15.0481 12.1801 15.0481C12.3164 15.048 12.4365 15.0618 12.5367 15.0915ZM50.4137 68.9383C45.8229 70.9113 40.0647 70.3087 36.5268 69.1918C30.1381 67.1827 22.695 62.3053 16.617 56.1455C16.6131 56.1416 16.6097 56.1382 16.6056 56.1341C10.4486 50.0583 5.56953 42.6146 3.55532 36.2237C2.44239 32.6852 1.84215 26.9253 3.81336 22.3368C4.80254 20.0347 6.52309 17.8496 8.3484 16.5384L17.6332 33.8374C17.122 36.6185 18.71 40.7559 22.0483 44.8531C22.8866 45.8831 23.8204 46.9164 24.827 47.9269C25.8341 48.9301 26.8668 49.8638 27.8968 50.7028C31.5154 53.6504 35.3151 56.1241 38.8734 55.1459L56.3001 64.2772C55.0025 66.1487 52.7683 67.925 50.4137 68.9383Z" fill="#F3F3F6"/>
<path d="M70.4316 11.6222C65.0752 1.41298 52.4089 -2.53577 42.1957 2.81653L42.1951 2.81712C31.9858 8.17528 28.0359 20.8421 33.3899 31.0537C33.778 31.7935 34.2208 32.5243 34.7111 33.2349L31.5457 38.6606C31.3248 39.0388 31.3333 39.5091 31.5685 39.8788C31.8025 40.249 32.2243 40.4545 32.6608 40.4184L41.7428 39.6155C44.918 41.3813 48.4107 42.2671 51.9086 42.2671C55.2337 42.2671 58.5633 41.466 61.627 39.8587C71.8369 34.5012 75.7869 21.8344 70.4316 11.6222ZM60.5382 37.7834C54.8579 40.7635 48.1488 40.621 42.5905 37.4023C42.412 37.2987 42.2088 37.2443 42.0033 37.2443C41.969 37.2443 41.9347 37.2461 41.9003 37.2489L34.7123 37.8841L37.1184 33.7602C37.3548 33.3545 37.3266 32.847 37.0463 32.4705C36.4449 31.662 35.9133 30.8191 35.4659 29.9654C30.7115 20.8982 34.2185 9.65044 43.2846 4.89193L43.284 4.89251C52.3517 0.136925 63.5989 3.64622 68.3562 12.7111C73.1112 21.7789 69.6036 33.0261 60.5382 37.7834Z" fill="#F3F3F6"/>
</svg>
