<svg id="Layer_1" data-name="Layer 1" xmlns="http://www.w3.org/2000/svg" viewBox="0 0 86.14 86.14"><defs><style>.cls-1{fill:#fff;}</style></defs><path class="cls-1" d="M51.9,17.07H22.31v52H63.82V29ZM30.09,29.86h3.32V26.58a2.67,2.67,0,1,1,5.33,0v3.28h3.33a2.67,2.67,0,0,1,0,5.33H38.74V38.5a2.67,2.67,0,0,1-5.33,0V35.18H30.09a2.66,2.66,0,1,1,0-5.32ZM57.6,61.47H28.54a1.08,1.08,0,0,1,0-2.15h29a1.07,1.07,0,0,1,1.07,1.08A1,1,0,0,1,57.6,61.47Zm0-9.08H28.54a1.07,1.07,0,0,1,0-2.14h29a1.07,1.07,0,0,1,1.07,1.07A1,1,0,0,1,57.6,52.39Zm-7.84-21.3V19.17l12,11.93h-12Z"/></svg>