<svg width="57" height="57" viewBox="0 0 57 57" fill="none" xmlns="http://www.w3.org/2000/svg">
<path d="M40.7973 23.1685L47.0133 8.65374C47.4466 7.64191 46.9756 6.46537 45.9635 6.03134L32.3941 0.220487C31.9051 0.0110797 31.3627 0.00536613 30.8661 0.20417C30.3694 0.403013 29.9812 0.781279 29.7722 1.27014L23.5564 15.7844L9.07522 9.58384C8.58658 9.37428 8.04406 9.36819 7.54774 9.56689C7.05067 9.76588 6.66222 10.1447 6.45282 10.6337L0.639368 24.2084C0.430034 24.6966 0.424098 25.2395 0.62294 25.7361C0.821782 26.2328 1.20057 26.6213 1.68905 26.8305L16.1701 33.032L9.96964 47.5125C9.53635 48.5244 10.0072 49.7005 11.0193 50.1346L24.5889 55.9458C25.0772 56.1546 25.6203 56.1609 26.1166 55.9622C26.6129 55.7635 27.0014 55.3847 27.2109 54.8961L33.4116 40.4163L47.918 46.6284C48.4243 46.8455 48.971 46.8361 49.4461 46.6459C49.9209 46.4558 50.3234 46.0852 50.54 45.5787L56.3539 32.0029C56.7874 30.9905 56.3166 29.8144 55.3041 29.3805L40.7973 23.1685ZM21.8745 33.8087C21.2831 34.0454 20.612 33.758 20.3758 33.1668C20.1388 32.5759 20.4259 31.9041 21.0174 31.6677C21.6086 31.4315 22.2795 31.7194 22.516 32.31C22.7526 32.9011 22.4656 33.572 21.8745 33.8087ZM26.1438 35.6375C25.5523 35.8743 24.8809 35.5861 24.6448 34.9953C24.4077 34.404 24.6949 33.7326 25.2865 33.4962C25.8772 33.2597 26.5486 33.5469 26.7854 34.1384C27.0219 34.729 26.7344 35.401 26.1438 35.6375ZM23.7275 29.4824C23.1353 29.7194 22.4645 29.4315 22.2287 28.8405C21.9914 28.2498 22.2779 27.5777 22.8703 27.341C23.4611 27.1049 24.1327 27.3925 24.3693 27.9836C24.6058 28.5743 24.3182 29.2459 23.7275 29.4824ZM30.4415 37.4773C29.8493 37.7144 29.1783 37.4261 28.9422 36.8353C28.7051 36.244 28.992 35.5727 29.5841 35.3356C30.1744 35.0993 30.8464 35.3868 31.0832 35.9782C31.3197 36.5688 31.0318 37.241 30.4415 37.4773ZM27.9964 31.3104C27.405 31.5472 26.7339 31.2598 26.4973 30.6688C26.2607 30.0777 26.5478 29.4059 27.1393 29.1695C27.73 28.933 28.4016 29.2206 28.6382 29.8117C28.8748 30.4027 28.5871 31.074 27.9964 31.3104ZM25.5788 25.1584C24.9874 25.3952 24.3159 25.108 24.0801 24.5166C23.8426 23.9255 24.13 23.2535 24.7217 23.0175C25.3128 22.7809 25.9839 23.0683 26.2206 23.6597C26.4573 24.2507 26.1699 24.9218 25.5788 25.1584ZM26.5495 18.7496C27.1405 18.513 27.8116 18.8003 28.0484 19.3918C28.285 19.9828 27.9976 20.6539 27.4066 20.8905C26.8151 21.1273 26.144 20.8399 25.9074 20.2488C25.6708 19.6578 25.9577 18.9856 26.5495 18.7496ZM32.2936 33.1509C31.7022 33.3877 31.0311 33.1003 30.7948 32.5091C30.5578 31.9182 30.8448 31.246 31.4365 31.01C32.0275 30.7734 32.6988 31.0611 32.9354 31.6522C33.172 32.2432 32.8846 32.9143 32.2936 33.1509ZM29.8483 26.9867C29.2568 27.2235 28.5849 26.9361 28.3493 26.3455C28.1116 25.754 28.3995 25.0818 28.991 24.8454C29.5821 24.6088 30.2529 24.8967 30.4899 25.4885C30.7262 26.0788 30.4393 26.7501 29.8483 26.9867ZM30.8183 20.5777C31.409 20.3412 32.0806 20.6288 32.3174 21.2202C32.5538 21.8109 32.2662 22.4825 31.6755 22.719C31.0841 22.9558 30.4129 22.668 30.1768 22.0772C29.9397 21.4859 30.2268 20.8141 30.8183 20.5777ZM34.1457 28.8267C33.5542 29.0635 32.8823 28.776 32.6464 28.1847C32.409 27.5939 32.6968 26.9218 33.2884 26.6854C33.8792 26.4493 34.5505 26.7371 34.787 27.3277C35.0236 27.9188 34.7363 28.5902 34.1457 28.8267ZM35.9731 24.5593C35.3813 24.7963 34.7104 24.5084 34.4743 23.9175C34.2372 23.3263 34.5237 22.6542 35.1157 22.4177C35.7064 22.1812 36.3781 22.4692 36.6149 23.0606C36.8514 23.6513 36.5638 24.3229 35.9731 24.5593Z" fill="#89BCE0"/>
</svg>
